<svg xmlns="http://www.w3.org/2000/svg" width="18" height="18" viewBox="0 0 18 18" fill="none">
  <path d="M9 0.75C4.44947 0.75 0.75 4.44947 0.75 9C0.75 10.5458 1.18421 12.0047 1.94842 13.2553C3.37263 15.6521 5.99526 17.25 9 17.25C12.0047 17.25 14.6274 15.6347 16.0516 13.2553C16.8158 12.0221 17.25 10.5458 17.25 9C17.25 4.44947 13.5679 0.75 9 0.75ZM12.1263 12.0742C11.8658 12.3347 11.5358 12.4563 11.2058 12.4563C10.8758 12.4563 10.5458 12.3347 10.2853 12.0742L9.03474 10.8237L7.7321 12.1263C7.47158 12.3868 7.14158 12.5084 6.81158 12.5084C6.48158 12.5084 6.15158 12.3868 5.89105 12.1263C5.38737 11.6226 5.38737 10.7889 5.89105 10.2853L7.19368 8.98263L5.94316 7.71474C5.43947 7.21105 5.43947 6.37737 5.94316 5.87368C6.44684 5.37 7.28053 5.37 7.78421 5.87368L9.03474 7.12421L10.2505 5.90842C10.7542 5.40474 11.5879 5.40474 12.0916 5.90842C12.5953 6.41211 12.5953 7.24579 12.0916 7.74947L10.8758 8.96526L12.1263 10.2332C12.6474 10.7368 12.6474 11.5705 12.1263 12.0742Z" fill="#FF5151" fill-opacity="0.99"/>
</svg>