<svg xmlns="http://www.w3.org/2000/svg" width="18" height="18" viewBox="0 0 18 18" fill="none">
  <path d="M10.7516 1.20211C10.1958 1.06737 9.60631 1 9 1C4.58737 1 1 4.58737 1 9C1 10.4989 1.42105 11.9137 2.1621 13.1263C2.78526 14.1705 3.64421 15.0632 4.68842 15.7032C5.93474 16.5284 7.41684 17 9 17C11.9305 17 14.4737 15.4337 15.8547 13.1263C16.5958 11.9137 17 10.4989 17 9C17 5.19368 14.3389 1.99368 10.7516 1.20211ZM12.9916 7.95579L8.71368 11.8968C8.47789 12.1158 8.1579 12.2337 7.85474 12.2337C7.53474 12.2337 7.21474 12.1158 6.96211 11.8632L4.99158 9.89263C4.50316 9.40421 4.50316 8.59579 4.99158 8.10737C5.48 7.61895 6.28842 7.61895 6.77684 8.10737L7.88842 9.21895L11.2737 6.10316C11.7958 5.63158 12.5874 5.66526 13.059 6.17053C13.5305 6.69263 13.4968 7.48421 12.9916 7.95579Z" fill="#17C964"/>
</svg>