<svg width="14" height="14" viewBox="0 0 14 14" fill="none" xmlns="http://www.w3.org/2000/svg">
<g id="&#240;&#159;&#166;&#134; icon &#34;calendar&#34;">
<path id="Vector" d="M1.00753 0C0.452312 0 0.00339225 0.4523 0.00755625 1.0075L0.0124629 1.66172C0.0165829 2.21106 0.463077 2.65422 1.01243 2.65422H12.9545C13.5068 2.65422 13.9545 2.2065 13.9545 1.65422V0.999999C13.9545 0.447715 13.5068 0 12.9545 0H7.07791H1.00753ZM1.01991 3.53896C0.467622 3.53896 0.0199063 3.98667 0.0199059 4.53896L0.0198991 13.8226C0.0198991 13.9212 0.0995256 14 0.199059 14H13.7558C13.8553 14 13.9346 13.9212 13.9346 13.8226V4.53896C13.9346 3.98667 13.4869 3.53896 12.9346 3.53896H7.0779H1.01991ZM2.01056 7.10085C2.01056 6.55653 2.46157 6.11526 3.00589 6.11526C3.55022 6.11526 4.00122 6.55653 4.00122 7.10085C4.00122 7.64518 3.55022 8.08645 3.00589 8.08645C2.46157 8.08645 2.01056 7.64518 2.01056 7.10085ZM5.99189 7.10085C5.99189 6.55653 6.44289 6.11526 6.98722 6.11526C7.53155 6.11526 7.98255 6.55653 7.98255 7.10085C7.98255 7.64518 7.53155 8.08645 6.98722 8.08645C6.44289 8.08645 5.99189 7.64518 5.99189 7.10085ZM9.97321 7.10085C9.97321 6.55653 10.4242 6.11526 10.9685 6.11526C11.5129 6.11526 11.9639 6.55653 11.9639 7.10085C11.9639 7.64518 11.5129 8.08645 10.9685 8.08645C10.4242 8.08645 9.97321 7.64518 9.97321 7.10085ZM2.01056 11.0432C2.01056 10.4989 2.46157 10.0576 3.00589 10.0576C3.55022 10.0576 4.00122 10.4989 4.00122 11.0432C4.00122 11.5876 3.55022 12.0288 3.00589 12.0288C2.46157 12.0288 2.01056 11.5876 2.01056 11.0432ZM5.99189 11.0432C5.99189 10.4989 6.44289 10.0576 6.98722 10.0576C7.53155 10.0576 7.98255 10.4989 7.98255 11.0432C7.98255 11.5876 7.53155 12.0288 6.98722 12.0288C6.44289 12.0288 5.99189 11.5876 5.99189 11.0432Z" fill="current"/>
</g>
</svg>
