<svg xmlns="http://www.w3.org/2000/svg" width="17" height="18" viewBox="0 0 17 18" fill="none">
  <g clip-path="url(#clip0_4680_1036)">
    <path d="M7 9.70002C7.30062 10.1019 7.68415 10.4344 8.12459 10.6751C8.56502 10.9157 9.05206 11.0588 9.55266 11.0946C10.0533 11.1305 10.5557 11.0583 11.0259 10.8829C11.4962 10.7075 11.9232 10.433 12.278 10.078L14.378 7.97802C15.0156 7.31791 15.3683 6.4338 15.3604 5.51611C15.3524 4.59842 14.9843 3.72058 14.3354 3.07165C13.6864 2.42272 12.8086 2.05463 11.8909 2.04666C10.9732 2.03868 10.0891 2.39146 9.429 3.02902L8.225 4.22602" stroke="#338EF7" stroke-width="1.8" stroke-linecap="round" stroke-linejoin="round"/>
    <path d="M9.79994 8.30001C9.49933 7.89812 9.11579 7.56559 8.67536 7.32496C8.23492 7.08433 7.74789 6.94123 7.24729 6.90538C6.74669 6.86953 6.24423 6.94176 5.774 7.11717C5.30377 7.29258 4.87676 7.56707 4.52194 7.92201L2.42194 10.022C1.78439 10.6821 1.43161 11.5662 1.43959 12.4839C1.44756 13.4016 1.81565 14.2795 2.46458 14.9284C3.11351 15.5773 3.99135 15.9454 4.90904 15.9534C5.82673 15.9613 6.71084 15.6086 7.37094 14.971L8.56794 13.774" stroke="#338EF7" stroke-width="1.8" stroke-linecap="round" stroke-linejoin="round"/>
  </g>
  <defs>
    <clipPath id="clip0_4680_1036">
      <rect width="16.8" height="16.8" fill="white" transform="translate(0 0.600006)"/>
    </clipPath>
  </defs>
</svg>