<svg xmlns="http://www.w3.org/2000/svg" width="15" height="16" viewBox="0 0 15 16" fill="none">
  <path d="M0.014442 6.42899L0.00401296 12.6631C0.00185097 13.9554 1.04469 15.0017 2.33704 15.0039L11.6881 15.0195C12.9805 15.0217 14.0268 13.9789 14.029 12.6865L14.0394 6.45245C14.0401 6.02055 13.6925 5.67178 13.2606 5.67105C12.8287 5.67033 12.4799 6.01794 12.4792 6.44984L12.4688 12.6839C12.4681 13.1125 12.1193 13.4601 11.6874 13.4627L2.34299 13.4471C1.91444 13.4463 1.56683 13.0976 1.5642 12.6657L1.57463 6.4316C1.57535 5.9997 1.22774 5.65092 0.795842 5.6502C0.363944 5.64948 0.0151646 5.99709 0.014442 6.42899Z" fill="#66AAF9"/>
  <path d="M11.1963 3.5964L7.77553 0.257338C7.4408 -0.0690365 6.89922 -0.0699426 6.56341 0.255311L3.12779 3.5829C2.79198 3.90815 2.7911 4.43447 3.12582 4.76084C3.46054 5.08722 4.00213 5.08813 4.33794 4.76287L7.16467 2.02503L9.98222 4.77231C10.3169 5.09869 10.8585 5.0996 11.1943 4.77434C11.5301 4.44909 11.531 3.92277 11.1963 3.5964Z" fill="#66AAF9"/>
  <path d="M6.45026 2.05909L6.4368 10.1053C6.43622 10.4484 6.75458 10.7256 7.15004 10.7262C7.54551 10.7269 7.86479 10.4508 7.86537 10.1077L7.87883 2.06148C7.8794 1.71835 7.56104 1.44119 7.16558 1.44053C6.77012 1.43986 6.45083 1.71596 6.45026 2.05909Z" fill="#66AAF9"/>
</svg>