<svg width="512" height="512" viewBox="0 0 512 512" fill="none" xmlns="http://www.w3.org/2000/svg">
<rect width="512" height="512" rx="153.121" fill="#66AAF9"/>
<path d="M200.799 135.735L200.799 135.74L200.951 148.375L200.951 148.381C201.054 152.001 202.198 154.544 204.491 155.854C206.71 157.122 210.141 157.731 214.726 157.731C219.716 157.731 223.534 157.172 226.144 156.024L226.144 156.024L226.155 156.019C227.484 155.381 228.496 154.482 229.173 153.318C229.848 152.157 230.176 150.755 230.176 149.132L230.175 149.122L230.023 143.033L230.023 143.022L230.022 143.011C229.922 141.809 229.871 139.995 229.871 137.562C229.871 135.032 229.972 130.725 230.175 124.637C230.482 117.975 228.793 113.066 225.013 110.019C221.256 106.889 215.106 105.366 206.657 105.366H206.649L206.64 105.367L199.942 105.671L199.942 105.671L199.933 105.672C191.113 106.28 181.582 106.584 171.339 106.584C159.272 106.584 148.273 106.128 138.342 105.216C137.408 105.113 136.124 105.062 134.498 105.062C130.187 105.062 127.137 106.19 125.51 108.573C123.915 110.809 123.158 114.721 123.158 120.207C123.158 123.398 123.826 125.883 125.222 127.601L125.23 127.611L125.239 127.62C126.751 129.24 129.346 130.22 132.926 130.63C142.592 132.054 155.043 132.764 170.273 132.764C179.721 132.764 188.815 132.409 197.554 131.697L197.562 131.697L197.57 131.696C198.701 131.554 199.469 131.829 199.972 132.437C200.497 133.071 200.799 134.143 200.799 135.735ZM176.063 218.625L176.067 218.625C180.357 218.523 183.432 217.605 185.163 215.766C186.894 213.927 187.702 210.546 187.702 205.764C187.702 201.961 186.778 199.184 184.825 197.557C182.898 195.951 179.746 195.135 175.458 195.033L175.455 195.033C161.941 194.83 151.095 195.794 142.929 197.938C134.768 199.978 128.845 203.205 125.222 207.656C121.604 212.101 119.809 217.773 119.809 224.641C119.809 229.699 120.962 234.142 123.28 237.958C125.597 241.773 129.067 244.94 133.669 247.465C142.861 252.509 156.6 255.01 174.84 255.01C189.467 255.01 201.17 253.994 209.938 251.956C218.703 250.019 225.131 246.848 229.163 242.404C233.302 237.953 235.352 231.915 235.352 224.336C235.352 215.607 232.212 208.988 225.907 204.543C219.641 200.023 211.293 197.472 200.895 196.861L200.891 196.861C196.719 196.657 193.706 197.154 191.968 198.458L191.968 198.458L191.959 198.465C190.307 199.786 189.334 202.516 188.927 206.482C188.823 207.316 188.772 208.449 188.772 209.874C188.772 212.945 189.281 215.275 190.365 216.792L190.374 216.805L190.384 216.817C191.59 218.242 193.53 219.025 196.118 219.232C199.864 219.638 202.363 220.342 203.697 221.295L203.705 221.3L203.713 221.305C205.002 222.134 205.67 223.471 205.67 225.402C205.67 226.779 205.04 227.883 203.716 228.735C203.107 229.109 202.139 229.465 200.784 229.792C199.434 230.117 197.725 230.406 195.655 230.659C191.615 231.062 185.592 231.265 177.58 231.265C169.568 231.265 163.594 231.113 159.651 230.81C155.806 230.405 153.193 229.752 151.748 228.887C150.448 228.049 149.795 226.806 149.795 225.098C149.795 223.51 150.482 222.311 151.895 221.464C153.342 220.596 155.909 219.942 159.657 219.536L159.657 219.537L159.667 219.535C163.399 219.031 168.862 218.727 176.063 218.625ZM152.844 149.589V163.057L135.874 162.759V162.759H135.868C128.049 162.759 121.542 163.013 116.35 163.522C113.382 163.731 111.104 164.78 109.577 166.709C108.058 168.628 107.326 171.363 107.326 174.86C107.326 179.452 108.138 182.813 109.851 184.846L109.85 184.847L109.858 184.855C111.692 186.905 114.52 187.726 118.24 187.416C125.536 186.808 133.137 186.503 141.044 186.503C149.054 186.503 160.973 186.808 176.805 187.417L176.805 187.417C195.478 188.127 207.816 188.482 213.812 188.482C223.262 188.482 231.247 188.025 237.766 187.109C240.775 186.694 243.079 185.57 244.627 183.702C246.172 181.837 246.921 179.28 246.921 176.078C246.921 171.687 246.159 168.435 244.557 166.405C242.945 164.364 240.539 163.368 237.409 163.368C236.29 163.368 235.406 163.419 234.767 163.524C227.277 164.435 218.922 164.891 209.702 164.891C203.879 164.891 194.619 164.642 181.917 164.144V149.589C181.917 147.922 181.618 146.51 180.995 145.373C180.371 144.233 179.433 143.391 178.197 142.852C175.883 141.698 172.311 141.142 167.533 141.142C162.648 141.142 158.981 141.649 156.573 142.696C155.33 143.236 154.389 144.093 153.764 145.262C153.143 146.424 152.844 147.873 152.844 149.589Z" fill="white" stroke="white" stroke-width="0.756544"/>
<path d="M358.552 135.735L358.552 135.74L358.704 148.375L358.704 148.381C358.807 152.001 359.951 154.544 362.244 155.854C364.463 157.122 367.894 157.731 372.479 157.731C377.469 157.731 381.287 157.172 383.897 156.024L383.897 156.024L383.908 156.019C385.237 155.381 386.249 154.482 386.926 153.318C387.601 152.157 387.928 150.755 387.929 149.132L387.928 149.122L387.776 143.033L387.776 143.022L387.775 143.011C387.675 141.809 387.624 139.995 387.624 137.562C387.624 135.032 387.725 130.725 387.928 124.637C388.235 117.975 386.546 113.066 382.766 110.019C379.009 106.889 372.859 105.366 364.41 105.366H364.402L364.393 105.367L357.695 105.671L357.695 105.671L357.686 105.672C348.866 106.28 339.335 106.584 329.092 106.584C317.025 106.584 306.026 106.128 296.095 105.216C295.161 105.113 293.877 105.062 292.251 105.062C287.939 105.062 284.89 106.19 283.263 108.573C281.668 110.809 280.911 114.721 280.911 120.207C280.911 123.398 281.579 125.883 282.975 127.601L282.983 127.611L282.992 127.62C284.504 129.24 287.099 130.22 290.679 130.63C300.345 132.054 312.796 132.764 328.026 132.764C337.474 132.764 346.568 132.409 355.307 131.697L355.315 131.697L355.323 131.696C356.454 131.554 357.222 131.829 357.725 132.437C358.25 133.071 358.552 134.143 358.552 135.735ZM333.816 218.625L333.82 218.625C338.11 218.523 341.185 217.605 342.916 215.766C344.647 213.927 345.455 210.546 345.455 205.764C345.455 201.961 344.531 199.184 342.578 197.557C340.651 195.951 337.499 195.135 333.211 195.033L333.208 195.033C319.694 194.83 308.848 195.794 300.682 197.938C292.521 199.978 286.598 203.205 282.975 207.656C279.357 212.101 277.562 217.773 277.562 224.641C277.562 229.699 278.715 234.142 281.033 237.958C283.35 241.773 286.82 244.94 291.422 247.465C300.614 252.509 314.353 255.01 332.593 255.01C347.22 255.01 358.922 253.994 367.69 251.956C376.456 250.019 382.884 246.848 386.915 242.404C391.055 237.953 393.104 231.915 393.104 224.336C393.104 215.607 389.965 208.988 383.66 204.543C377.393 200.023 369.046 197.472 358.648 196.861L358.644 196.861C354.472 196.657 351.459 197.154 349.721 198.458L349.721 198.458L349.712 198.465C348.06 199.786 347.087 202.516 346.68 206.482C346.576 207.316 346.525 208.449 346.525 209.874C346.525 212.945 347.034 215.275 348.118 216.792L348.127 216.805L348.137 216.817C349.343 218.242 351.283 219.025 353.87 219.232C357.617 219.638 360.116 220.342 361.45 221.295L361.458 221.3L361.466 221.305C362.755 222.134 363.423 223.471 363.423 225.402C363.423 226.779 362.793 227.883 361.469 228.735C360.86 229.109 359.892 229.465 358.537 229.792C357.187 230.117 355.478 230.406 353.408 230.659C349.367 231.062 343.345 231.265 335.333 231.265C327.321 231.265 321.347 231.113 317.404 230.81C313.559 230.405 310.946 229.752 309.501 228.887C308.201 228.049 307.548 226.806 307.548 225.098C307.548 223.51 308.235 222.311 309.648 221.464C311.095 220.596 313.662 219.942 317.41 219.536L317.41 219.537L317.42 219.535C321.152 219.031 326.615 218.727 333.816 218.625ZM310.597 149.589V163.057L293.627 162.759V162.759H293.621C285.802 162.759 279.295 163.013 274.103 163.522C271.135 163.731 268.857 164.78 267.33 166.709C265.811 168.628 265.079 171.363 265.079 174.86C265.079 179.452 265.891 182.813 267.603 184.846L267.603 184.847L267.611 184.855C269.445 186.905 272.273 187.726 275.993 187.416C283.289 186.808 290.89 186.503 298.797 186.503C306.807 186.503 318.726 186.808 334.558 187.417L334.558 187.417C353.231 188.127 365.569 188.482 371.565 188.482C381.014 188.482 389 188.025 395.519 187.109C398.527 186.694 400.832 185.57 402.38 183.702C403.925 181.837 404.674 179.28 404.674 176.078C404.674 171.687 403.912 168.435 402.309 166.405C400.698 164.364 398.292 163.368 395.162 163.368C394.043 163.368 393.159 163.419 392.52 163.524C385.03 164.435 376.675 164.891 367.455 164.891C361.632 164.891 352.372 164.642 339.67 164.144V149.589C339.67 147.922 339.37 146.51 338.748 145.373C338.124 144.233 337.186 143.391 335.95 142.852C333.636 141.698 330.064 141.142 325.286 141.142C320.401 141.142 316.734 141.649 314.326 142.696C313.083 143.236 312.142 144.093 311.517 145.262C310.896 146.424 310.597 147.873 310.597 149.589Z" fill="white" stroke="white" stroke-width="0.756544"/>
<path d="M234.742 323.114C234.336 315.404 234.134 309.069 234.134 304.105C234.134 298.939 234.336 292.604 234.742 285.099C235.253 277.73 233.67 271.983 229.926 267.925C226.276 263.755 220.519 261.71 212.747 261.71C210.589 261.71 207.828 261.966 204.469 262.475L204.468 262.475C192.712 264.3 181.568 265.211 171.034 265.211C158.473 265.211 146.573 264.046 135.336 261.718L135.336 261.718L234.364 323.135M234.742 323.114C234.742 323.114 234.742 323.114 234.742 323.115L234.364 323.135M234.742 323.114C234.742 323.113 234.742 323.113 234.742 323.113L234.364 323.135M234.742 323.114C234.846 324.936 234.587 326.514 233.943 327.83C233.297 329.149 232.274 330.181 230.893 330.926M234.364 323.135C234.567 326.687 233.349 329.173 230.711 330.594M230.893 330.926C230.894 330.925 230.895 330.925 230.895 330.924L230.711 330.594M230.893 330.926C228.272 332.392 224.441 333.104 219.445 333.104C214.76 333.104 211.317 332.445 209.191 331.064L209.182 331.058L209.173 331.051C207.119 329.537 205.98 326.871 205.671 323.166L205.671 323.161C205.265 317.269 205.061 312.287 205.061 308.215C205.061 304.044 205.265 299.114 205.671 293.427M230.893 330.926C230.892 330.926 230.891 330.927 230.89 330.927L230.711 330.594M230.711 330.594L205.671 293.427M205.671 293.427C205.671 293.429 205.671 293.431 205.671 293.433L206.048 293.449L205.671 293.422C205.671 293.424 205.671 293.425 205.671 293.427ZM205.671 293.427C205.718 292.27 205.436 291.556 204.937 291.156C204.426 290.747 203.581 290.581 202.303 290.777M205.671 293.427L202.303 290.777M202.303 290.777C202.305 290.777 202.306 290.777 202.307 290.777L202.243 290.404L202.3 290.778C202.301 290.778 202.302 290.777 202.303 290.777ZM129.851 288.947C129.852 288.947 129.853 288.947 129.854 288.948L129.931 288.577L129.847 288.946C129.848 288.946 129.85 288.947 129.851 288.947ZM120.424 272.985C120.423 272.986 120.423 272.987 120.423 272.988L120.796 273.049L120.424 272.981C120.424 272.983 120.424 272.984 120.424 272.985ZM166.158 405.382L166.164 405.384C168.572 406.431 172.239 406.938 177.124 406.938C181.906 406.938 185.525 406.381 187.937 405.229C189.174 404.69 190.113 403.848 190.738 402.707C191.361 401.57 191.66 400.158 191.66 398.491V370.888C202.224 371.68 210.422 372.076 216.248 372.076C224.491 372.076 232.178 371.364 239.31 369.937L239.315 369.936C242.213 369.315 244.258 368.108 245.347 366.257C246.409 364.451 246.921 361.99 246.921 358.91C246.921 353.719 246.212 349.877 244.737 347.451C243.234 344.877 240.709 343.613 237.257 343.613C236.718 343.613 235.728 343.718 234.311 343.921C227.934 344.832 221.659 345.287 215.487 345.287C212.453 345.287 206.373 345.085 197.24 344.679C197.239 344.679 197.237 344.679 197.236 344.679L192.833 344.375L192.83 344.375L177.154 343.157C169.649 342.549 164.415 342.193 161.461 342.091C158.101 341.887 153.476 341.786 147.59 341.786C136.307 341.786 126.084 342.599 116.924 344.227L116.924 344.228C112.922 344.946 110.239 346.453 109.042 348.842C107.885 351.054 107.326 354.272 107.326 358.453C107.326 362.506 108.171 365.615 109.926 367.716C111.691 369.829 114.325 370.858 117.752 370.858H117.77L117.788 370.856L120.984 370.552L120.995 370.551L121.005 370.55C131.134 369.03 141.721 368.27 152.766 368.27C157.004 368.27 160.277 368.316 162.587 368.407V398.491C162.587 401.925 163.741 404.283 166.158 405.382Z" fill="white" stroke="white" stroke-width="0.756544"/>
<path d="M392.495 323.114C392.089 315.404 391.887 309.069 391.887 304.105C391.887 298.939 392.089 292.604 392.495 285.099C393.006 277.73 391.423 271.983 387.679 267.925C384.029 263.755 378.272 261.71 370.5 261.71C368.342 261.71 365.581 261.966 362.222 262.475L362.221 262.475C350.465 264.3 339.32 265.211 328.787 265.211C316.226 265.211 304.326 264.046 293.088 261.718L293.088 261.718L392.117 323.135M392.495 323.114C392.495 323.114 392.495 323.114 392.495 323.115L392.117 323.135M392.495 323.114C392.495 323.113 392.495 323.113 392.495 323.113L392.117 323.135M392.495 323.114C392.599 324.936 392.34 326.514 391.696 327.83C391.05 329.149 390.027 330.181 388.645 330.926M392.117 323.135C392.32 326.687 391.102 329.173 388.464 330.594M388.645 330.926C388.646 330.925 388.647 330.925 388.648 330.924L388.464 330.594M388.645 330.926C386.025 332.392 382.194 333.104 377.198 333.104C372.513 333.104 369.07 332.445 366.944 331.064L366.935 331.058L366.926 331.051C364.872 329.537 363.733 326.871 363.424 323.166L363.424 323.161C363.018 317.269 362.814 312.287 362.814 308.215C362.814 304.044 363.018 299.114 363.424 293.427M388.645 330.926C388.645 330.926 388.644 330.927 388.643 330.927L388.464 330.594M388.464 330.594L363.424 293.427M363.424 293.427C363.424 293.429 363.424 293.431 363.423 293.433L363.801 293.449L363.424 293.422C363.424 293.424 363.424 293.425 363.424 293.427ZM363.424 293.427C363.471 292.27 363.189 291.556 362.69 291.156C362.179 290.747 361.334 290.581 360.056 290.777M363.424 293.427L360.056 290.777M360.056 290.777C360.057 290.777 360.059 290.777 360.06 290.777L359.995 290.404L360.053 290.778C360.054 290.778 360.055 290.777 360.056 290.777ZM287.604 288.947C287.605 288.947 287.606 288.947 287.607 288.948L287.683 288.577L287.6 288.946C287.601 288.946 287.602 288.947 287.604 288.947ZM278.177 272.985C278.176 272.986 278.176 272.987 278.176 272.988L278.549 273.049L278.177 272.981C278.177 272.983 278.177 272.984 278.177 272.985ZM323.911 405.382L323.917 405.384C326.325 406.431 329.992 406.938 334.877 406.938C339.659 406.938 343.278 406.381 345.69 405.229C346.927 404.69 347.866 403.848 348.491 402.707C349.114 401.57 349.413 400.158 349.413 398.491V370.888C359.977 371.68 368.175 372.076 374.001 372.076C382.244 372.076 389.931 371.364 397.063 369.937L397.068 369.936C399.966 369.315 402.011 368.108 403.1 366.257C404.162 364.451 404.674 361.99 404.674 358.91C404.674 353.719 403.965 349.877 402.49 347.451C400.987 344.877 398.462 343.613 395.01 343.613C394.471 343.613 393.481 343.718 392.064 343.921C385.687 344.832 379.412 345.287 373.24 345.287C370.206 345.287 364.126 345.085 354.993 344.679C354.992 344.679 354.99 344.679 354.989 344.679L350.586 344.375L350.583 344.375L334.907 343.157C327.402 342.549 322.168 342.193 319.214 342.091C315.854 341.887 311.229 341.786 305.343 341.786C294.06 341.786 283.837 342.599 274.677 344.227L274.677 344.228C270.675 344.946 267.991 346.453 266.795 348.842C265.638 351.054 265.079 354.272 265.079 358.453C265.079 362.506 265.924 365.615 267.679 367.716C269.444 369.829 272.077 370.858 275.505 370.858H275.523L275.54 370.856L278.737 370.552L278.748 370.551L278.758 370.55C288.887 369.03 299.474 368.27 310.519 368.27C314.757 368.27 318.03 368.316 320.34 368.407V398.491C320.34 401.925 321.494 404.283 323.911 405.382Z" fill="white" stroke="white" stroke-width="0.756544"/>
</svg>
